<?xml version="1.0" encoding="utf-8"?>
<!-- Generator: Adobe Illustrator 17.1.0, SVG Export Plug-In . SVG Version: 6.00 Build 0)  -->
<!DOCTYPE svg PUBLIC "-//W3C//DTD SVG 1.1//EN" "http://www.w3.org/Graphics/SVG/1.1/DTD/svg11.dtd">
<svg version="1.1" id="Layer_1" xmlns="http://www.w3.org/2000/svg" xmlns:xlink="http://www.w3.org/1999/xlink" x="0px" y="0px"
	 viewBox="0 0 355.69 355.68" enable-background="new 0 0 355.69 355.68" xml:space="preserve">
<g>
	<path fill="#FFFFFF" d="M303.6,52.08c-8.7-8.7-18.31-16.49-28.65-23.24C247.03,10.6,213.68,0,177.85,0
		c-35.84,0-69.19,10.6-97.11,28.84C70.2,35.72,60.43,43.69,51.6,52.59C19.71,84.74,0,128.98,0,177.84
		c0,48.85,19.71,93.1,51.6,125.24c9.7,9.78,20.53,18.43,32.28,25.76c27.26,17,59.46,26.84,93.97,26.84c34.5,0,66.7-9.84,93.97-26.84
		c11.54-7.2,22.2-15.68,31.78-25.25c32.18-32.18,52.09-76.64,52.09-125.75C355.69,128.73,335.78,84.26,303.6,52.08z M292.75,231.97
		c-2.11,3.5-5.1,6.35-8.38,8.74c-4.22,19.13-12.46,37.71-25.34,52.6c-16.98,19.61-41.77,32.19-67.58,34.53
		c-6.92,0-13.85,0.1-20.76,0.04c-23.58-2.82-45.94-14.59-61.81-32.22c-9.88-10.65-16.65-23.73-22.31-36.98
		c-6.17-1.12-12.67-2.11-17.76-6.1c-10.36-8.43-15.21-22.68-13.05-35.75c1.24-8.32,5.51-15.74,10.41-22.41
		c0.19-17.78,2.08-35.54,5.29-53.02c3.48-17.68,7.47-35.39,14.57-52.01c5.13-12.08,11.5-23.91,20.92-33.22
		c16.26-16.83,39.53-25.79,62.71-26.62c4.31,0.16,8.62,0.49,12.94,0.31c10.08-0.6,20.2,0.94,29.9,3.63c5.51,1.72,11.13,3.4,16.1,6.4
		c3.1,2.66,4.44,6.95,4.47,10.94c0.18,9.36,0.05,18.74,0.47,28.1c2.08,2.31,5.11,3.54,7.42,5.63
		c19.54,15.81,31.59,38.75,40.34,61.87c4.28,5.72,9.23,11.06,12.25,17.64c5.57,11.72,7.32,24.89,6.87,37.77
		C300.75,212.34,298.15,222.94,292.75,231.97z"/>
	<path fill="#FFFFFF" d="M224.88,137.64c-9.2-18.31-18.61-37.14-33.63-51.48c-11.78-11.64-27.92-19.3-44.64-19.21
		c-14.85-0.51-28.66,6.9-39.9,16c-8.25,6.56-13.23,16.03-18.91,24.68c3.46-10.72,7.97-21.25,14.05-30.75
		c9.43-15.32,23.8-27.73,40.61-34.27c22.45-8.56,47.53-5.91,69.9,1.52c4.55,1.25,9.47,4.52,9.57,9.74
		c0.39,9.1,0.34,18.23,0.28,27.35c1.1,11.81,0.4,23.75,1.31,35.59C224.15,123.75,223.88,130.74,224.88,137.64z"/>
	<path fill="#FFFFFF" d="M96.08,242.33c-4.49,6.14-13.46,8.67-20.35,5.22c-7.42-3.83-12.49-11.49-13.85-19.66
		c-2.48-9.16,1.13-19.43,8.34-25.45c7.65-5.77,19.54-3.81,25.37,3.65c3.36,4.44,5.55,9.88,5.6,15.49l-0.05-0.14
		C102.42,228.74,100.87,236.56,96.08,242.33z"/>
	<path fill="#FFFFFF" d="M273.85,197.54c-10.45-3-20.99-5.66-31.4-8.81c-0.77-12.38,2.15-25.36,9.47-35.53
		c4.06-5.75,10.44-9.4,17.2-11.06c-6.11-20.5-19.21-38.27-35.09-52.33c-0.69,23.03,0.67,46.08-0.22,69.11
		c-0.85,9.11-0.49,18.29-1.71,27.37l-1.29-0.85c-4.28-12.34-9.43-24.38-14.01-36.62c-6.55-17.76-15.83-34.63-28.22-48.99
		c-7.63-8.49-17.24-15.45-28.2-18.89c-14.28-4.46-30.86-4.19-43.61,4.37c-13.57,8.65-23.93,21.78-30.73,36.24l-0.29-0.07
		c-6.38,13.63-11.18,28.2-12.34,43.28c-0.3,9.3-0.8,18.59-1.2,27.89c2.27-0.44,4.53-0.92,6.8-1.39l0.01-0.47
		c5.91-0.44,11.97-1.47,17.8,0.15c8.04,2.7,14.48,9.19,17.87,16.89c4.21,9.53,5.17,20.79,1.26,30.58
		c-2.67,6.78-7.41,13.1-14.21,16.11c0.4,4.01,2.23,7.66,3.81,11.31c4.37,9.39,9.82,18.49,17.41,25.66
		c18.09,18.36,45.26,27.04,70.65,23.1c-5.58-1.48-11.37-2.06-16.85-3.93c-13.57-4.36-26.17-12.99-33.76-25.23
		c-4.71-7.07-3.4-17.55,3.13-23.06c7.5-6.53,18.69-7.5,27.84-4.27c13.92,4.45,28.03,8.61,42.58,10.31c14.6,1,29.74,0.85,43.46-4.9
		c4.82-1.58,7.89-6.02,9.92-10.42c1.53-3.68,2.96-7.79,2.25-11.8c-10.69-3.88-19.24-12.75-23.33-23.28
		c5.55-4.02,10.7-8.56,16.09-12.79C267.93,202.68,271.26,200.51,273.85,197.54z M218.31,203.8c-0.13,11.82-3.87,23.95-11.86,32.85
		c-6.16,6.37-14.89,10.5-23.84,10.29c-14-0.79-25.74-11.16-32.28-22.99c10-6.94,20.2-13.6,30.19-20.55
		c-12.52-3.64-25.25-6.51-37.87-9.72c-1.17-13.24,4.07-26.97,13.2-36.59c5.53-5.98,13.64-9.23,21.76-8.9
		c10.67-0.39,20.01,6.17,26.95,13.67C214.2,173.43,218.84,188.83,218.31,203.8z"/>
	<path fill="#FFFFFF" d="M109.73,234.28c-0.9,5.34-4.84,9.38-9.13,12.34c7.37-7.91,7.97-19.63,5.54-29.66
		c-1.67-9.3-8.43-17.85-17.49-20.84c6.68-0.28,12.42,4.24,16.35,9.24C111.15,213.56,111.48,224.57,109.73,234.28z"/>
	<path fill="#FFFFFF" d="M259.85,272.11c-2.95,5.45-7.13,10.12-11.06,14.87c-9.29,10.74-21.67,19.97-36.18,21.49
		c-15.16,0.99-30.53-2.65-44.03-9.51c-9.01-4.54-17.51-12.42-18.4-23.05c15.99,6.41,32.46,12.14,49.55,14.62
		c-15.88-5.87-30.94-13.86-45.23-22.9c4.99-2.41,10.66-3.68,16.2-2.83c8.81,1.03,16.86,5.05,25.38,7.23
		c15.85,3.65,32.26,4.33,48.45,3.19C249.75,274.85,254.83,273.55,259.85,272.11z"/>
</g>
</svg>
